<svg xmlns="http://www.w3.org/2000/svg" viewBox="0 0 800 500">
    <!-- Background -->
    <rect width="800" height="500" fill="#f5f5f5" />
    
    <!-- Title -->
    <text x="400" y="30" font-family="Arial" font-size="20" text-anchor="middle" font-weight="bold">Gateway API Architecture with Azure Private DNS</text>
    
    <!-- Azure Cloud Box -->
    <rect x="50" y="60" width="700" height="400" rx="10" ry="10" fill="#f0f8ff" stroke="#0078d4" stroke-width="2" />
    <text x="100" y="85" font-family="Arial" font-size="16" fill="#0078d4" font-weight="bold">Azure Cloud</text>
    
    <!-- Kubernetes Cluster Box -->
    <rect x="100" y="100" width="550" height="320" rx="8" ry="8" fill="#e6f7ff" stroke="#0078d4" stroke-width="1.5" stroke-dasharray="5,5" />
    <text x="150" y="125" font-family="Arial" font-size="14" fill="#0078d4">Kubernetes Cluster</text>
    
    <!-- Gateway Controller -->
    <rect x="130" y="150" width="160" height="70" rx="5" ry="5" fill="#ffffff" stroke="#0078d4" stroke-width="1.5" />
    <text x="210" y="185" font-family="Arial" font-size="12" text-anchor="middle" font-weight="bold">Gateway Controller</text>
    <text x="210" y="205" font-family="Arial" font-size="10" text-anchor="middle">(controllerName)</text>
    
    <!-- Gateway -->
    <rect x="150" y="240" width="120" height="60" rx="5" ry="5" fill="#ffffff" stroke="#0078d4" stroke-width="1.5" />
    <text x="210" y="265" font-family="Arial" font-size="12" text-anchor="middle" font-weight="bold">Gateway</text>
    <text x="210" y="285" font-family="Arial" font-size="10" text-anchor="middle">listeners: HTTPS:443</text>
    
    <!-- HTTPRoute -->
    <rect x="150" y="340" width="120" height="60" rx="5" ry="5" fill="#ffffff" stroke="#3cb371" stroke-width="1.5" />
    <text x="210" y="365" font-family="Arial" font-size="12" text-anchor="middle" font-weight="bold">HTTPRoute</text>
    <text x="210" y="385" font-family="Arial" font-size="10" text-anchor="middle">app.internal.example.com</text>
    
    <!-- External Secrets -->
    <rect x="460" y="150" width="160" height="70" rx="5" ry="5" fill="#ffffff" stroke="#ff7f50" stroke-width="1.5" />
    <text x="540" y="185" font-family="Arial" font-size="12" text-anchor="middle" font-weight="bold">External Secrets</text>
    <text x="540" y="205" font-family="Arial" font-size="10" text-anchor="middle">Azure Key Vault Integration</text>
    
    <!-- cert-manager -->
    <rect x="460" y="240" width="160" height="60" rx="5" ry="5" fill="#ffffff" stroke="#ff7f50" stroke-width="1.5" />
    <text x="540" y="265" font-family="Arial" font-size="12" text-anchor="middle" font-weight="bold">cert-manager</text>
    <text x="540" y="285" font-family="Arial" font-size="10" text-anchor="middle">Certificate Issuer</text>
    
    <!-- TLS Secret -->
    <rect x="460" y="340" width="160" height="60" rx="5" ry="5" fill="#ffffff" stroke="#ff7f50" stroke-width="1.5" />
    <text x="540" y="365" font-family="Arial" font-size="12" text-anchor="middle" font-weight="bold">TLS Secret</text>
    <text x="540" y="385" font-family="Arial" font-size="10" text-anchor="middle">tls-cert-secret</text>
    
    <!-- Azure Private DNS -->
    <rect x="330" y="80" width="140" height="50" rx="5" ry="5" fill="#ffffff" stroke="#0078d4" stroke-width="1.5" />
    <text x="400" y="105" font-family="Arial" font-size="12" text-anchor="middle" font-weight="bold">Azure Private DNS</text>
    <text x="400" y="120" font-family="Arial" font-size="10" text-anchor="middle">internal.example.com</text>
    
    <!-- App Service -->
    <rect x="330" y="350" width="120" height="50" rx="5" ry="5" fill="#ffffff" stroke="#3cb371" stroke-width="1.5" />
    <text x="390" y="375" font-family="Arial" font-size="12" text-anchor="middle" font-weight="bold">App Service</text>
    <text x="390" y="390" font-family="Arial" font-size="10" text-anchor="middle">port: 8080</text>
    
    <!-- ReferenceGrant -->
    <rect x="330" y="250" width="120" height="50" rx="5" ry="5" fill="#ffffff" stroke="#9370db" stroke-width="1.5" />
    <text x="390" y="275" font-family="Arial" font-size="12" text-anchor="middle" font-weight="bold">ReferenceGrant</text>
    <text x="390" y="290" font-family="Arial" font-size="10" text-anchor="middle">Cross-NS References</text>
    
    <!-- Client -->
    <rect x="330" y="20" width="140" height="40" rx="20" ry="20" fill="#ffffff" stroke="#666666" stroke-width="1.5" />
    <text x="400" y="45" font-family="Arial" font-size="12" text-anchor="middle" font-weight="bold">Client Request</text>
    
    <!-- Connection lines -->
    <!-- Client to DNS -->
    <line x1="400" y1="60" x2="400" y2="80" stroke="#666666" stroke-width="1.5" />
    <polygon points="400,80 395,70 405,70" fill="#666666" />
    
    <!-- DNS to Gateway -->
    <line x1="330" y1="105" x2="210" y2="240" stroke="#0078d4" stroke-width="1.5" stroke-dasharray="4,2" />
    <polygon points="210,240 215,230 220,238" fill="#0078d4" />
    
    <!-- Controller to Gateway -->
    <line x1="210" y1="220" x2="210" y2="240" stroke="#0078d4" stroke-width="1.5" />
    <polygon points="210,240 205,230 215,230" fill="#0078d4" />
    
    <!-- Gateway to HTTPRoute -->
    <line x1="210" y1="300" x2="210" y2="340" stroke="#0078d4" stroke-width="1.5" />
    <polygon points="210,340 205,330 215,330" fill="#0078d4" />
    
    <!-- HTTPRoute to App -->
    <line x1="270" y1="370" x2="330" y2="370" stroke="#3cb371" stroke-width="1.5" />
    <polygon points="330,370 320,365 320,375" fill="#3cb371" />
    
    <!-- External Secrets to TLS Secret -->
    <line x1="540" y1="220" x2="540" y2="340" stroke="#ff7f50" stroke-width="1.5" />
    <polygon points="540,340 535,330 545,330" fill="#ff7f50" />
    
    <!-- cert-manager to TLS Secret -->
    <line x1="540" y1="300" x2="540" y2="340" stroke="#ff7f50" stroke-width="1.5" />
    <polygon points="540,340 535,330 545,330" fill="#ff7f50" />
    
    <!-- ReferenceGrant connections -->
    <line x1="330" y1="275" x2="270" y2="275" stroke="#9370db" stroke-width="1.5" stroke-dasharray="4,2" />
    <polygon points="270,275 280,270 280,280" fill="#9370db" />
    
    <line x1="450" y1="275" x2="460" y2="275" stroke="#9370db" stroke-width="1.5" stroke-dasharray="4,2" />
    <polygon points="460,275 450,270 450,280" fill="#9370db" />
    
    <!-- Gateway to TLS Secret -->
    <line x1="270" y1="265" x2="459" y2="340" stroke="#0078d4" stroke-width="1.5" stroke-dasharray="4,2" />
    <circle cx="460" cy="340" r="3" fill="#0078d4" />
    
    <!-- Legend -->
    <rect x="620" y="420" width="120" height="70" rx="5" ry="5" fill="#ffffff" stroke="#666666" stroke-width="1" />
    <text x="680" y="435" font-family="Arial" font-size="10" text-anchor="middle" font-weight="bold">Legend</text>
    
    <rect x="630" y="445" width="12" height="12" fill="#ffffff" stroke="#0078d4" stroke-width="1.5" />
    <text x="650" y="455" font-family="Arial" font-size="9" text-anchor="left">Gateway API</text>
    
    <rect x="630" y="465" width="12" height="12" fill="#ffffff" stroke="#ff7f50" stroke-width="1.5" />
    <text x="650" y="475" font-family="Arial" font-size="9" text-anchor="left">Secret/Cert</text>
    
    <rect x="690" y="445" width="12" height="12" fill="#ffffff" stroke="#3cb371" stroke-width="1.5" />
    <text x="710" y="455" font-family="Arial" font-size="9" text-anchor="left">App</text>
    
    <rect x="690" y="465" width="12" height="12" fill="#ffffff" stroke="#9370db" stroke-width="1.5" />
    <text x="710" y="475" font-family="Arial" font-size="9" text-anchor="left">References</text>
  </svg>