<?xml version="1.0" encoding="UTF-8"?><svg viewBox="0 0 800 600" xmlns="http://www.w3.org/2000/svg"><rect x="50" y="30" width="700" height="100" fill="#e6f3ff" stroke="#666" rx="5"/><text x="60" y="50" fill="#333" font-weight="bold">External Layer</text><rect x="100" y="60" width="200" height="50" fill="#fff" stroke="#0066cc" rx="5"/><text x="120" y="90" fill="#0066cc">Azure Traffic Manager</text><rect x="500" y="60" width="200" height="50" fill="#fff" stroke="#0066cc" rx="5"/><text x="520" y="90" fill="#0066cc">Azure Application Gateway/WAF</text><rect x="50" y="150" width="700" height="400" fill="#f5f5f5" stroke="#666" rx="5"/><text x="60" y="170" fill="#333" font-weight="bold">AKS Cluster</text><rect x="100" y="190" width="600" height="100" fill="#fff" stroke="#00aa00" rx="5"/><text x="110" y="210" fill="#00aa00" font-weight="bold">Istio Control Plane</text><rect x="150" y="220" width="200" height="50" fill="#fff" stroke="#00aa00" rx="5"/><text x="220" y="250" fill="#00aa00">Istiod</text><rect x="450" y="220" width="200" height="50" fill="#fff" stroke="#00aa00" rx="5"/><text x="490" y="250" fill="#00aa00">Istio Ingress Gateway</text><rect x="100" y="310" width="600" height="100" fill="#fff" stroke="#cc6600" rx="5"/><text x="110" y="330" fill="#cc6600" font-weight="bold">Service Mesh</text><rect x="120" y="340" width="180" height="50" fill="#fff" stroke="#cc6600" rx="5"/><text x="160" y="370" fill="#cc6600">Virtual Services</text><rect x="310" y="340" width="180" height="50" fill="#fff" stroke="#cc6600" rx="5"/><text x="350" y="370" fill="#cc6600">Destination Rules</text><rect x="500" y="340" width="180" height="50" fill="#fff" stroke="#cc6600" rx="5"/><text x="540" y="370" fill="#cc6600">Circuit Breaker</text><rect x="100" y="430" width="600" height="100" fill="#fff" stroke="#666" rx="5"/><text x="110" y="450" fill="#333" font-weight="bold">Application Layer</text><rect x="120" y="460" width="180" height="50" fill="#fff" stroke="#666" rx="5"/><text x="170" y="490" fill="#333">Service A</text><rect x="310" y="460" width="180" height="50" fill="#fff" stroke="#666" rx="5"/><text x="360" y="490" fill="#333">Service B</text><rect x="500" y="460" width="180" height="50" fill="#fff" stroke="#666" rx="5"/><text x="550" y="490" fill="#333">Service C</text><defs><marker id="arrowhead" markerWidth="10" markerHeight="7" refX="9" refY="3.5" orient="auto"><polygon points="0 0, 10 3.5, 0 7" fill="#666"/></marker></defs><path d="M200 85 L500 85" stroke="#666" stroke-width="2" marker-end="url(#arrowhead)"/><path d="M600 110 L600 220" stroke="#666" stroke-width="2" marker-end="url(#arrowhead)"/><path d="M550 270 L550 340" stroke="#666" stroke-width="2" marker-end="url(#arrowhead)"/><path d="M550 390 L550 460" stroke="#666" stroke-width="2" marker-end="url(#arrowhead)"/></svg>